HIERARCHY
ROOT Hips
{
	OFFSET	0.0000	0.0000	0.0000
	CHANNELS 6 Xposition Yposition Zposition Xrotation Yrotation Zrotation
	JOINT Spine
	{
		OFFSET	0.0000	9.6567	-5.2257
		CHANNELS 3 Xrotation Yrotation Zrotation
		JOINT Spine1
		{
			OFFSET	0.0000	8.8125	0.4604
			CHANNELS 3 Xrotation Yrotation Zrotation
			JOINT Spine2
			{
				OFFSET	0.0000	10.9044	-2.4272
				CHANNELS 3 Xrotation Yrotation Zrotation
				JOINT Neck
				{
					OFFSET	0.0000	24.5727	-0.5110
					CHANNELS 3 Xrotation Yrotation Zrotation
					JOINT Head
					{
						OFFSET	-0.0001	13.8765	3.7744
						CHANNELS 3 Xrotation Yrotation Zrotation
						End Site
						{
							OFFSET	0.0001	19.3889	0.5788
						}
					}
				}
				JOINT LeftShoulder
				{
					OFFSET	2.4808	23.7139	8.1245
					CHANNELS 3 Xrotation Yrotation Zrotation
					JOINT LeftArm
					{
						OFFSET	14.4933	3.4014	-5.5038
						CHANNELS 3 Xrotation Yrotation Zrotation
						JOINT LeftForeArm
						{
							OFFSET	30.7865	-0.1092	-0.2668
							CHANNELS 3 Xrotation Yrotation Zrotation
							JOINT LeftHand
							{
								OFFSET	25.6825	0.0745	-0.1539
								CHANNELS 3 Xrotation Yrotation Zrotation
								JOINT LeftHandIndex1
								{
									OFFSET	9.9538	0.8705	2.7646
									CHANNELS 3 Xrotation Yrotation Zrotation
									JOINT LeftHandIndex2
									{
										OFFSET	3.7232	-0.9079	0.6560
										CHANNELS 3 Xrotation Yrotation Zrotation
										JOINT LeftHandIndex3
										{
											OFFSET	2.5418	-0.6200	0.4480
											CHANNELS 3 Xrotation Yrotation Zrotation
											End Site
											{
												OFFSET	1.8087	-0.5399	0.2934
											}
										}
									}
								}
								JOINT LeftHandMiddle1
								{
									OFFSET	10.1024	1.0053	0.2407
									CHANNELS 3 Xrotation Yrotation Zrotation
									JOINT LeftHandMiddle2
									{
										OFFSET	4.6036	0.0129	-0.0272
										CHANNELS 3 Xrotation Yrotation Zrotation
										JOINT LeftHandMiddle3
										{
											OFFSET	2.5518	0.0078	-0.0155
											CHANNELS 3 Xrotation Yrotation Zrotation
											End Site
											{
												OFFSET	2.2919	-0.1619	0.0031
											}
										}
									}
								}
								JOINT LeftHandRing1
								{
									OFFSET	9.5741	0.6709	-2.2651
									CHANNELS 3 Xrotation Yrotation Zrotation
									JOINT LeftHandRing2
									{
										OFFSET	4.1772	-0.2115	-0.2615
										CHANNELS 3 Xrotation Yrotation Zrotation
										JOINT LeftHandRing3
										{
											OFFSET	2.3804	-0.1198	-0.1495
											CHANNELS 3 Xrotation Yrotation Zrotation
											End Site
											{
												OFFSET	2.1047	-0.2588	-0.0995
											}
										}
									}
								}
								JOINT LeftHandPinky1
								{
									OFFSET	8.8844	-0.6751	-3.9118
									CHANNELS 3 Xrotation Yrotation Zrotation
									JOINT LeftHandPinky2
									{
										OFFSET	2.5694	-0.5358	-0.7093
										CHANNELS 3 Xrotation Yrotation Zrotation
										JOINT LeftHandPinky3
										{
											OFFSET	1.8842	-0.3924	-0.5205
											CHANNELS 3 Xrotation Yrotation Zrotation
											End Site
											{
												OFFSET	1.6723	-0.4595	-0.3837
											}
										}
									}
								}
								JOINT LeftHandThumb1
								{
									OFFSET	2.0591	-1.5585	1.5610
									CHANNELS 3 Xrotation Yrotation Zrotation
									JOINT LeftHandThumb2
									{
										OFFSET	3.8337	-1.2590	2.8904
										CHANNELS 3 Xrotation Yrotation Zrotation
										JOINT LeftHandThumb3
										{
											OFFSET	2.5244	-0.9033	1.8187
											CHANNELS 3 Xrotation Yrotation Zrotation
											End Site
											{
												OFFSET	1.8564	-0.6390	1.2712
											}
										}
									}
								}
							}
						}
					}
				}
				JOINT RightShoulder
				{
					OFFSET	-2.4808	23.7139	8.1245
					CHANNELS 3 Xrotation Yrotation Zrotation
					JOINT RightArm
					{
						OFFSET	-14.4958	3.4020	-5.5048
						CHANNELS 3 Xrotation Yrotation Zrotation
						JOINT RightForeArm
						{
							OFFSET	-30.7865	-0.1091	-0.2668
							CHANNELS 3 Xrotation Yrotation Zrotation
							JOINT RightHand
							{
								OFFSET	-25.6825	0.0745	-0.1538
								CHANNELS 3 Xrotation Yrotation Zrotation
								JOINT RightHandIndex1
								{
									OFFSET	-9.9539	0.8706	2.7647
									CHANNELS 3 Xrotation Yrotation Zrotation
									JOINT RightHandIndex2
									{
										OFFSET	-3.7232	-0.9079	0.6560
										CHANNELS 3 Xrotation Yrotation Zrotation
										JOINT RightHandIndex3
										{
											OFFSET	-2.5417	-0.6201	0.4480
											CHANNELS 3 Xrotation Yrotation Zrotation
											End Site
											{
												OFFSET	-1.8087	-0.5399	0.2934
											}
										}
									}
								}
								JOINT RightHandMiddle1
								{
									OFFSET	-10.1024	1.0053	0.2407
									CHANNELS 3 Xrotation Yrotation Zrotation
									JOINT RightHandMiddle2
									{
										OFFSET	-4.6036	0.0129	-0.0272
										CHANNELS 3 Xrotation Yrotation Zrotation
										JOINT RightHandMiddle3
										{
											OFFSET	-2.5518	0.0078	-0.0156
											CHANNELS 3 Xrotation Yrotation Zrotation
											End Site
											{
												OFFSET	-2.2919	-0.1619	0.0031
											}
										}
									}
								}
								JOINT RightHandRing1
								{
									OFFSET	-9.5741	0.6709	-2.2651
									CHANNELS 3 Xrotation Yrotation Zrotation
									JOINT RightHandRing2
									{
										OFFSET	-4.1772	-0.2115	-0.2615
										CHANNELS 3 Xrotation Yrotation Zrotation
										JOINT RightHandRing3
										{
											OFFSET	-2.3804	-0.1198	-0.1495
											CHANNELS 3 Xrotation Yrotation Zrotation
											End Site
											{
												OFFSET	-2.1047	-0.2588	-0.0995
											}
										}
									}
								}
								JOINT RightHandPinky1
								{
									OFFSET	-8.8844	-0.6751	-3.9117
									CHANNELS 3 Xrotation Yrotation Zrotation
									JOINT RightHandPinky2
									{
										OFFSET	-2.5694	-0.5358	-0.7093
										CHANNELS 3 Xrotation Yrotation Zrotation
										JOINT RightHandPinky3
										{
											OFFSET	-1.8841	-0.3923	-0.5205
											CHANNELS 3 Xrotation Yrotation Zrotation
											End Site
											{
												OFFSET	-1.6723	-0.4595	-0.3837
											}
										}
									}
								}
								JOINT RightHandThumb1
								{
									OFFSET	-2.0591	-1.5584	1.5609
									CHANNELS 3 Xrotation Yrotation Zrotation
									JOINT RightHandThumb2
									{
										OFFSET	-3.8336	-1.2592	2.8905
										CHANNELS 3 Xrotation Yrotation Zrotation
										JOINT RightHandThumb3
										{
											OFFSET	-2.5244	-0.9032	1.8187
											CHANNELS 3 Xrotation Yrotation Zrotation
											End Site
											{
												OFFSET	-1.8564	-0.6390	1.2712
											}
										}
									}
								}
							}
						}
					}
				}
			}
		}
	}
	JOINT RightUpLeg
	{
		OFFSET	-10.3303	4.3651	-0.8515
		CHANNELS 3 Xrotation Yrotation Zrotation
		JOINT RightLeg
		{
			OFFSET	-0.8266	-44.9320	0.0000
			CHANNELS 3 Xrotation Yrotation Zrotation
			JOINT RightFoot
			{
				OFFSET	0.0000	-44.1205	0.0000
				CHANNELS 3 Xrotation Yrotation Zrotation
				JOINT RightToeBase
				{
					OFFSET	0.0000	-4.8492	10.1404
					CHANNELS 3 Xrotation Yrotation Zrotation
					End Site
					{
						OFFSET	0.0000	0.0000	6.8028
					}
				}
			}
		}
	}
	JOINT LeftUpLeg
	{
		OFFSET	10.3301	4.3654	-0.8515
		CHANNELS 3 Xrotation Yrotation Zrotation
		JOINT LeftLeg
		{
			OFFSET	0.8267	-44.9323	0.0000
			CHANNELS 3 Xrotation Yrotation Zrotation
			JOINT LeftFoot
			{
				OFFSET	0.0000	-44.1205	0.0000
				CHANNELS 3 Xrotation Yrotation Zrotation
				JOINT LeftToeBase
				{
					OFFSET	0.0000	-4.8493	10.1404
					CHANNELS 3 Xrotation Yrotation Zrotation
					End Site
					{
						OFFSET	0.0000	0.0000	6.8028
					}
				}
			}
		}
	}
}
MOTION
Frames:	8
Frame Time: 0.0333333000
	0.0000	92.0557	3.0206	0.000000	0.000000	0.000000	0.000000	0.000000	0.000000	0.000000	0.000000	0.000000	0.000000	0.000000	0.000000	0.000000	0.000000	0.000000	0.000000	0.000000	0.000000	0.000000	0.000000	0.000000	0.000000	0.000000	0.000000	0.000000	0.000000	0.000000	0.000000	0.000000	0.000000	0.000000	0.000000	0.000000	0.000000	0.000000	0.000000	0.000000	0.000000	0.000000	0.000000	0.000000	0.000000	0.000000	0.000000	0.000000	0.000000	0.000000	0.000000	0.000000	0.000000	0.000000	0.000000	0.000000	0.000000	0.000000	0.000000	0.000000	0.000000	0.000000	0.000000	0.000000	0.000000	0.000000	0.000000	0.000000	0.000000	0.000000	0.000000	0.000000	0.000000	0.000000	0.000000	0.000000	0.000000	0.000000	0.000000	0.000000	0.000000	0.000000	0.000000	0.000000	0.000000	0.000000	0.000000	0.000000	0.000000	0.000000	0.000000	0.000000	0.000000	0.000000	0.000000	0.000000	0.000000	0.000000	0.000000	0.000000	0.000000	0.000000	0.000000	0.000000	0.000000	0.000000	0.000000	0.000000	0.000000	0.000000	0.000000	0.000000	0.000000	0.000000	0.000000	0.000000	0.000000	0.000000	0.000000	0.000000	0.000000	0.000000	0.000000	0.000000	0.000000	0.000000	0.000000	0.000000	0.000000	0.000000	0.000000	0.000000	0.000000	0.000000	0.000000	0.000000	0.000000	0.000000	0.000000	0.000000	0.000000	0.000000	0.000000	0.000000	0.000000	0.000000	0.000000	0.000000	0.000000	0.000000	0.000000	0.000000	0.000000	0.000000	0.000000	0.000000	0.000000	0.000000	0.000000
	-83.6526	94.9215	-130.1984	0.732383	-3.949085	1.565514	0.000000	0.000001	0.000000	1.698050	-0.162082	-0.600040	5.635613	-0.602262	-1.982152	2.997557	-0.793055	3.293949	-0.256237	0.129346	3.683867	1.827501	0.285352	-8.931898	-2.620442	-34.337140	-70.217260	0.007227	-1.940375	-0.001806	-0.000005	0.000000	0.000000	0.000000	-0.000003	-0.000004	0.000004	-0.000004	-0.000004	-0.000003	0.000002	0.000005	0.000000	-0.000003	-0.000004	0.000004	-0.000004	-0.000004	-0.000003	0.000002	0.000005	0.000000	-0.000003	-0.000004	0.000004	-0.000004	-0.000004	-0.000003	0.000002	0.000005	0.000000	-0.000003	-0.000004	0.000004	-0.000004	-0.000004	-0.000003	0.000002	0.000005	0.000000	-0.000003	-0.000004	0.000004	-0.000004	-0.000004	-0.000003	0.000002	0.000005	0.107888	0.265392	16.171690	14.023800	39.675730	58.382000	0.060723	20.684890	-0.003770	-0.000001	-0.000002	-0.000005	0.000001	-0.000001	0.000001	0.000001	-0.000001	0.000001	0.000000	0.000000	0.000000	0.000001	-0.000001	0.000001	0.000001	-0.000001	0.000001	0.000000	0.000000	0.000000	0.000001	-0.000001	0.000001	0.000001	-0.000001	0.000001	0.000000	0.000000	0.000000	0.000001	-0.000001	0.000001	0.000001	-0.000001	0.000001	0.000000	0.000000	0.000000	0.000001	-0.000001	0.000001	0.000001	-0.000001	0.000001	0.000000	0.000000	0.000000	-9.015345	-22.594730	-0.462791	14.237030	0.000001	-0.000001	0.000000	0.000000	0.000000	0.000000	0.000000	0.000000	-2.954252	-5.689793	-1.053944	8.093267	0.000000	0.000000	0.000000	0.000000	0.000000	0.000000	0.000000	0.000000
	-83.7340	94.9249	-130.1877	0.142375	-4.864062	1.486417	0.000000	0.000000	0.000000	1.751115	0.448474	-0.417943	5.839816	1.448235	-1.446640	1.841164	-0.421801	1.688297	-0.773856	0.027233	3.648357	1.519124	0.225771	-9.774055	3.701838	-24.326940	-69.475450	0.051233	-17.235560	0.000964	0.000001	-0.000001	0.000001	0.000001	-0.000001	0.000001	0.000001	-0.000001	0.000001	0.000001	-0.000001	0.000001	0.000001	-0.000001	0.000001	0.000001	-0.000001	0.000001	0.000001	-0.000001	0.000001	0.000001	-0.000001	0.000001	0.000001	-0.000001	0.000001	0.000001	-0.000001	0.000001	0.000001	-0.000001	0.000001	0.000001	-0.000001	0.000001	0.000001	-0.000001	0.000001	0.000001	-0.000001	0.000001	0.000001	-0.000001	0.000001	0.000001	-0.000001	0.000001	-0.961608	-2.437436	17.361960	12.311810	34.616740	59.106880	0.062716	21.251040	-0.004201	0.000001	-0.000001	0.000001	-0.000001	0.000001	0.000000	0.000000	0.000000	0.000000	0.000000	0.000000	0.000000	-0.000001	0.000001	0.000000	0.000000	0.000000	0.000000	0.000000	0.000000	0.000000	-0.000001	0.000001	0.000000	0.000000	0.000000	0.000000	0.000000	0.000000	0.000000	-0.000001	0.000001	0.000000	0.000000	0.000000	0.000000	0.000000	0.000000	0.000000	-0.000001	0.000001	0.000000	0.000000	0.000000	0.000000	0.000000	0.000000	0.000000	-8.652767	-16.700890	-0.298983	13.584880	-0.000002	0.000000	0.000000	-0.000001	0.000000	0.000000	-0.000001	0.000000	-2.715417	-4.271509	-1.089097	7.924371	0.000000	0.000000	-0.000001	0.000001	0.000000	0.000000	0.000001	0.000000
	-83.8125	94.9233	-130.1821	-0.351859	-5.765316	1.451341	0.000000	0.000000	0.000000	1.800857	0.959001	-0.296296	6.020664	3.160006	-1.105009	0.892334	-0.116070	0.463868	-1.162016	-0.053189	3.626072	1.238703	0.175657	-10.538140	8.547372	-15.857600	-69.704420	0.092376	-29.884960	0.013596	-0.000002	0.000005	0.000004	0.000001	0.000001	0.000005	0.000001	0.000001	0.000005	0.000001	0.000001	0.000005	0.000001	0.000001	0.000005	0.000001	0.000001	0.000005	0.000001	0.000001	0.000005	0.000001	0.000001	0.000005	0.000001	0.000001	0.000005	0.000001	0.000001	0.000005	0.000001	0.000001	0.000005	0.000001	0.000001	0.000005	0.000001	0.000001	0.000005	0.000001	0.000001	0.000005	0.000001	0.000001	0.000005	0.000001	0.000001	0.000005	-1.774315	-4.603082	18.275090	11.063490	30.362120	59.622780	0.064907	21.913990	-0.004770	-0.000003	-0.000001	0.000000	0.000000	0.000001	0.000000	0.000000	0.000001	0.000000	0.000000	0.000001	0.000000	0.000000	0.000001	0.000000	0.000000	0.000001	0.000000	0.000000	0.000001	0.000000	0.000000	0.000001	0.000000	0.000000	0.000001	0.000000	0.000000	0.000001	0.000000	0.000000	0.000001	0.000000	0.000000	0.000001	0.000000	0.000000	0.000001	0.000000	0.000000	0.000001	0.000000	0.000000	0.000001	0.000000	0.000000	0.000001	0.000000	-8.399741	-11.877190	-0.217217	13.077770	-0.000001	0.000000	0.000000	-0.000002	0.000000	0.000000	0.000000	0.000000	-2.470506	-3.115091	-1.141680	7.722266	-0.000001	0.000000	0.000000	0.000000	0.000000	0.000000	0.000000	0.000000
	-83.8878	94.9147	-130.1839	-0.723007	-6.659728	1.499527	0.000000	0.000000	0.000000	1.853956	1.330628	-0.264779	6.209970	4.399048	-1.050300	0.221366	0.069696	-0.242165	-1.375645	-0.104430	3.618321	1.007469	0.137229	-11.167060	11.962920	-9.493183	-70.235690	0.128282	-38.963000	0.030978	0.000000	-0.000001	0.000000	0.000001	-0.000001	0.000000	0.000000	0.000000	0.000000	0.000000	0.000000	0.000000	0.000001	-0.000001	0.000000	0.000000	0.000000	0.000000	0.000000	0.000000	0.000000	0.000001	-0.000001	0.000000	0.000000	0.000000	0.000000	0.000000	0.000000	0.000000	0.000001	-0.000001	0.000000	0.000000	0.000000	0.000000	0.000000	0.000000	0.000000	0.000001	-0.000001	0.000000	0.000000	0.000000	0.000000	0.000000	0.000000	0.000000	-2.265170	-5.960644	18.830720	10.324590	27.191560	60.056610	0.067832	22.853580	-0.005632	-0.000003	-0.000002	0.000000	0.000002	0.000004	0.000004	0.000005	0.000002	-0.000005	-0.000002	-0.000002	0.000000	0.000002	0.000004	0.000004	0.000005	0.000002	-0.000005	-0.000002	-0.000002	0.000000	0.000002	0.000004	0.000004	0.000005	0.000002	-0.000005	-0.000002	-0.000002	0.000000	0.000002	0.000004	0.000004	0.000005	0.000002	-0.000005	-0.000002	-0.000002	0.000000	0.000002	0.000004	0.000004	0.000005	0.000002	-0.000005	-0.000002	-0.000002	0.000000	-8.266676	-8.501977	-0.223085	12.773520	0.000000	0.000000	0.000000	-0.000001	0.000000	0.000000	-0.000001	0.000000	-2.206712	-2.312804	-1.229135	7.468863	-0.000001	0.000000	0.000000	0.000001	0.000000	0.000000	0.000000	0.000000
	-83.9613	94.9002	-130.1940	-1.015367	-7.535438	1.646485	0.000000	0.000000	0.000000	1.921559	1.584961	-0.315974	6.451663	5.236785	-1.260801	-0.223266	0.154640	-0.553971	-1.452384	-0.133410	3.607147	0.850022	0.112552	-11.594740	14.375850	-4.692136	-70.799570	0.159380	-45.368180	0.049620	-0.000002	0.000001	0.000000	0.000000	0.000000	0.000000	0.000000	0.000000	0.000000	0.000000	0.000000	0.000000	0.000000	0.000000	0.000000	0.000000	0.000000	0.000000	0.000000	0.000000	0.000000	0.000000	0.000000	0.000000	0.000000	0.000000	0.000000	0.000000	0.000000	0.000000	0.000000	0.000000	0.000000	0.000000	0.000000	0.000000	0.000000	0.000000	0.000000	0.000000	0.000000	0.000000	0.000000	0.000000	0.000000	0.000000	0.000000	0.000000	-2.477304	-6.559350	19.071890	9.983384	24.845160	60.487610	0.072329	24.288220	-0.007066	0.000000	0.000002	0.000000	0.000001	0.000001	0.000000	0.000001	0.000001	0.000000	0.000001	0.000001	0.000000	0.000001	0.000001	0.000000	0.000001	0.000001	0.000000	0.000001	0.000001	0.000000	0.000001	0.000001	0.000000	0.000001	0.000001	0.000000	0.000001	0.000001	0.000000	0.000001	0.000001	0.000000	0.000001	0.000001	0.000000	0.000001	0.000001	0.000000	0.000001	0.000001	0.000000	0.000001	0.000001	0.000000	0.000001	0.000001	0.000000	-8.211108	-6.224704	-0.317474	12.632010	-0.000001	0.000000	0.000000	0.000000	0.000000	0.000000	0.000000	0.000000	-1.918760	-1.778337	-1.373706	7.175120	0.000000	0.000000	0.000000	0.000000	0.000000	0.000000	0.000000	0.000000
	-84.0284	94.8822	-130.2169	-1.251823	-8.251716	1.890564	0.000000	0.000000	0.000000	2.006176	1.722422	-0.428436	6.753989	5.675932	-1.664446	-0.460872	0.173977	-0.623473	-1.414662	-0.144431	3.558348	0.827856	0.109174	-11.654920	16.018470	-1.162469	-71.356600	0.185091	-49.789910	0.066971	-0.000002	0.000002	-0.000010	0.000002	-0.000003	0.000005	-0.000002	0.000005	0.000000	0.000001	-0.000002	0.000000	0.000002	-0.000003	0.000005	-0.000002	0.000005	0.000000	0.000001	-0.000002	0.000000	0.000002	-0.000003	0.000005	-0.000002	0.000005	0.000000	0.000001	-0.000002	0.000000	0.000002	-0.000003	0.000005	-0.000002	0.000005	0.000000	0.000001	-0.000002	0.000000	0.000002	-0.000003	0.000005	-0.000002	0.000005	0.000000	0.000001	-0.000002	0.000000	-2.428241	-6.420226	19.016050	9.929488	23.252500	60.873270	0.078913	26.298590	-0.009259	0.000004	0.000004	0.000000	-0.000002	-0.000002	0.000000	-0.000002	-0.000001	0.000005	0.000002	0.000001	-0.000005	-0.000002	-0.000002	0.000000	-0.000002	-0.000001	0.000005	0.000002	0.000001	-0.000005	-0.000002	-0.000002	0.000000	-0.000002	-0.000001	0.000005	0.000002	0.000001	-0.000005	-0.000002	-0.000002	0.000000	-0.000002	-0.000001	0.000005	0.000002	0.000001	-0.000005	-0.000002	-0.000002	0.000000	-0.000002	-0.000001	0.000005	0.000002	0.000001	-0.000005	-8.193854	-4.789831	-0.504229	12.622340	-0.000001	0.000000	0.000000	-0.000001	0.000000	0.000000	0.000001	0.000000	-1.650295	-1.446328	-1.585918	6.896245	0.000002	0.000000	0.000000	-0.000001	0.000000	0.000000	0.000000	0.000000
	-84.0888	94.8610	-130.2648	-1.434072	-8.646184	2.214921	0.000000	-0.000001	0.000000	2.098261	1.746511	-0.569734	7.079886	5.731777	-2.150406	-0.515334	0.171418	-0.615476	-1.251992	-0.139875	3.432607	0.999020	0.135874	-11.190020	17.179810	1.488268	-71.973200	0.207552	-53.117820	0.083369	0.000000	0.000005	0.000005	0.000000	-0.000005	-0.000005	0.000000	0.000005	0.000005	0.000000	-0.000005	-0.000005	0.000000	-0.000005	-0.000005	0.000000	0.000005	0.000005	0.000000	-0.000005	-0.000005	0.000000	-0.000005	-0.000005	0.000000	0.000005	0.000005	0.000000	-0.000005	-0.000005	0.000000	-0.000005	-0.000005	0.000000	0.000005	0.000005	0.000000	-0.000005	-0.000005	0.000000	-0.000005	-0.000005	0.000000	0.000005	0.000005	0.000000	-0.000005	-0.000005	-2.145290	-5.625544	18.694720	10.009160	22.414260	61.059770	0.087669	28.807620	-0.012376	0.000000	0.000000	0.000000	0.000000	0.000000	0.000000	0.000000	0.000000	0.000000	0.000000	0.000000	0.000000	0.000000	0.000000	0.000000	0.000000	0.000000	0.000000	0.000000	0.000000	0.000000	0.000000	0.000000	0.000000	0.000000	0.000000	0.000000	0.000000	0.000000	0.000000	0.000000	0.000000	0.000000	0.000000	0.000000	0.000000	0.000000	0.000000	0.000000	0.000000	0.000000	0.000000	0.000000	0.000000	0.000000	0.000000	0.000000	0.000000	-8.197400	-3.928915	-0.774964	12.660140	0.000000	0.000000	0.000000	0.000000	0.000000	0.000000	0.000000	0.000000	-1.479317	-1.248597	-1.857983	6.693661	0.000000	0.000000	0.000000	-0.000001	0.000000	0.000000	-0.000001	0.000000
